<svg width="59" height="59" viewBox="0 0 59 59" fill="none" xmlns="http://www.w3.org/2000/svg">
<rect width="59" height="59" rx="12" fill="white"/>
<g clip-path="url(#clip0)">
<path d="M14.4536 10.0059C14.0952 10.0486 13.7113 10.1197 13.4297 10.1908C13.2534 10.2363 13.1027 10.279 13.097 10.2818C13.0941 10.2875 14.0042 11.2061 15.1248 12.3238C16.2425 13.4415 17.1924 14.4085 17.2322 14.4768L17.3061 14.5991L17.2919 15.3328C17.2777 15.9813 17.2692 16.078 17.2208 16.1917C17.1782 16.2884 16.9449 16.5387 16.2766 17.1985C15.7874 17.6849 15.3665 18.0915 15.3438 18.1058C15.247 18.1598 15.0707 18.1769 14.3626 18.2081C13.7966 18.2338 13.6032 18.2338 13.5236 18.2081C13.4382 18.1797 12.9946 17.7531 11.3621 16.1235C10.233 14.9944 9.30017 14.0786 9.29164 14.0871C9.26319 14.1156 9.10962 14.7555 9.06411 15.0228C8.99301 15.4665 8.97879 16.1405 9.03283 16.6041C9.1153 17.3236 9.29448 17.9294 9.60448 18.5637C10.1193 19.6131 10.9127 20.4692 11.9394 21.0806C13.2648 21.8684 14.9541 22.1073 16.4387 21.7148C16.5923 21.675 16.7373 21.6409 16.7658 21.6381C16.797 21.6381 18.4438 23.262 21.248 26.0634C23.6853 28.5007 25.6932 30.4944 25.7074 30.4944C25.7416 30.4944 27.5361 28.6884 27.5361 28.6571C27.5361 28.6344 24.2854 25.3808 19.6781 20.7962C18.0598 19.1865 17.9205 19.0414 17.929 18.9618C17.9347 18.8993 17.9546 18.8737 18.0029 18.868C18.0541 18.8594 18.1963 18.9874 18.694 19.4794C19.0382 19.8207 19.3993 20.1819 19.496 20.2815C19.5927 20.381 21.4783 22.2723 23.6825 24.4878L27.6954 28.5121L28.6027 27.5963C29.1032 27.0929 29.5156 26.6692 29.5213 26.6549C29.527 26.6407 27.5333 24.6357 25.0931 22.1983L20.6564 17.7645L20.7133 17.5682C21.5295 14.6417 20.0336 11.5787 17.2237 10.4325C16.5297 10.1481 15.867 10.0173 15.0792 10.0031C14.7892 9.99741 14.5076 10.0003 14.4536 10.0059Z" fill="#038C4C"/>
<path d="M47.9563 12.5684C47.5411 12.6879 47.197 12.7874 47.1884 12.796C47.1828 12.8017 47.4643 13.0946 47.8141 13.4444C48.1668 13.7971 48.4598 14.0729 48.4711 14.0616C48.4797 14.0502 48.5877 13.6805 48.71 13.2396C48.9461 12.3751 48.9489 12.3466 48.784 12.3523C48.7442 12.3551 48.3716 12.4518 47.9563 12.5684Z" fill="#038C4C"/>
<path d="M45.3029 13.3164L43.7159 13.7629L42.7944 14.6816C42.2882 15.1878 41.8758 15.6059 41.8786 15.6087C41.8815 15.6115 42.5697 15.4381 43.4059 15.2191L44.9275 14.8266L45.0042 14.9005C45.0469 14.9404 45.0754 14.983 45.0697 14.9944C45.0526 15.0228 44.316 18.1882 44.3245 18.1939C44.3274 18.1968 45.027 18.0091 45.8802 17.7759C46.7334 17.5455 47.4615 17.3521 47.5013 17.3464C47.5667 17.3379 47.5867 17.2725 47.982 15.8504L48.3944 14.3659L47.6435 13.6179L46.8899 12.8699L45.3029 13.3164Z" fill="#038C4C"/>
<path d="M43.093 15.5945C42.382 15.7793 41.7364 15.9386 41.6568 15.9471L41.5146 15.9613L27.3655 30.1104L13.2164 44.2595L13.7795 44.8198L14.3398 45.3829L29.4075 30.3152C37.6922 22.0305 44.4525 15.2503 44.4297 15.2532C44.4069 15.2532 43.804 15.4068 43.093 15.5945Z" fill="#038C4C"/>
<path d="M29.5753 30.4887L14.5104 45.5535L15.0934 46.1366L15.6765 46.7196L29.8256 32.5705L43.9718 18.4214L44.3159 16.9425C44.5036 16.132 44.6544 15.4551 44.6515 15.4437C44.6458 15.4323 37.8628 22.2012 29.5753 30.4887Z" fill="#038C4C"/>
<path d="M45.8034 18.0915L44.1766 18.5323L30.0047 32.7042L15.8329 46.876L16.4387 47.479L17.0416 48.0847L32.2487 32.8777C40.613 24.5134 47.4501 17.6649 47.4444 17.6592C47.4358 17.6535 46.6992 17.8498 45.8034 18.0915Z" fill="#038C4C"/>
<path d="M33.5939 32.5563L32.6696 33.4806L35.727 36.5323C37.4078 38.2074 39.3958 40.1897 40.1438 40.932C41.2757 42.0582 41.5004 42.2943 41.5004 42.3597C41.5004 42.4194 41.4833 42.4422 41.4264 42.4564C41.361 42.4735 41.2871 42.4109 40.6728 41.7966C40.2974 41.4212 39.7513 40.8751 39.4584 40.5765C37.823 38.9184 32.553 33.6513 32.5274 33.6513C32.5132 33.6513 32.0894 34.0608 31.5889 34.5614L30.6816 35.4686L30.7385 35.534C30.767 35.571 32.5872 37.394 34.7828 39.5896L38.773 43.577L38.6706 43.9837C38.0563 46.458 39.0346 48.9778 41.1591 50.4027C42.5811 51.3526 44.3444 51.6341 46.0594 51.1791L46.341 51.1051L44.2904 49.0546C42.5641 47.3254 42.2342 46.9813 42.183 46.8618C42.1289 46.7367 42.1232 46.6713 42.1261 46.2219C42.1318 45.4512 42.1574 45.1696 42.2398 45.053C42.3394 44.9108 44.0031 43.2698 44.1027 43.2158C44.2022 43.1617 44.6601 43.1248 45.3541 43.1162C45.8347 43.1077 45.8376 43.1077 45.9513 43.1845C46.0139 43.2243 46.9723 44.1685 48.0844 45.2805C49.1935 46.3926 50.1122 47.3027 50.1207 47.3027C50.1491 47.3027 50.2828 46.7708 50.3454 46.4068C50.5501 45.2151 50.3596 43.9211 49.8192 42.8233C48.7783 40.7045 46.577 39.3934 44.2307 39.4901C43.8012 39.5071 43.2836 39.5839 42.9281 39.6806C42.8143 39.7119 42.7034 39.7375 42.6807 39.7375C42.6579 39.7375 40.815 37.9145 38.5852 35.6848C36.3555 33.455 34.5268 31.632 34.5239 31.632C34.5211 31.632 34.103 32.0472 33.5939 32.5563Z" fill="#038C4C"/>
<path d="M12.8893 44.5867L12.7357 44.7431L13.2448 45.2692C14.0184 46.0684 14.6384 46.6855 15.6452 47.6696L16.5638 48.5626L16.7231 48.4033L16.8824 48.2412L14.9797 46.3357C13.9302 45.2891 13.0685 44.4302 13.06 44.4302C13.0514 44.4302 12.9746 44.5013 12.8893 44.5867Z" fill="#038C4C"/>
<path d="M11.5896 45.8863C10.6994 46.7793 10.6084 46.8789 10.5231 47.0609C10.4378 47.2401 10.4292 47.2856 10.4292 47.5159C10.4292 47.7463 10.4378 47.7918 10.5231 47.971C10.6112 48.1558 10.7023 48.2554 11.874 49.4271C13.0457 50.5989 13.1453 50.6899 13.3301 50.778C13.5093 50.8634 13.5548 50.8719 13.7852 50.8719C14.0156 50.8719 14.0611 50.8634 14.2402 50.778C14.4223 50.6927 14.5218 50.6017 15.4205 49.7058L16.4017 48.7246L14.4962 46.8191C13.4496 45.7725 12.585 44.9136 12.5765 44.9136C12.5679 44.9136 12.1243 45.3516 11.5896 45.8863Z" fill="#038C4C"/>
</g>
<defs>
<clipPath id="clip0">
<rect width="42" height="42" fill="white" transform="translate(9 10)"/>
</clipPath>
</defs>
</svg>
