<svg width="42" height="42" viewBox="0 0 42 42" fill="none" xmlns="http://www.w3.org/2000/svg">
<g clip-path="url(#clip0)">
<path d="M5.45356 0.00594498C5.09522 0.0486048 4.71127 0.119707 4.42971 0.190807C4.25338 0.236311 4.10265 0.278973 4.09696 0.281816C4.09411 0.287504 5.00421 1.20613 6.12476 2.32384C7.24246 3.44154 8.19237 4.40852 8.23219 4.47677L8.30614 4.59907L8.29191 5.33283C8.27769 5.98127 8.26916 6.07796 8.22081 6.19173C8.17815 6.28842 7.94494 6.5387 7.27659 7.19852C6.78742 7.68485 6.3665 8.09154 6.34375 8.10576C6.24705 8.1598 6.07072 8.17686 5.36256 8.20815C4.79659 8.23375 4.6032 8.23375 4.52356 8.20815C4.43824 8.17971 3.99457 7.7531 2.36209 6.12347C1.23301 4.99439 0.300167 4.07861 0.291635 4.08714C0.263194 4.11558 0.109616 4.75549 0.0641117 5.02283C-0.00698925 5.4665 -0.0212095 6.14053 0.0328273 6.60411C0.115304 7.32365 0.294479 7.92943 0.604479 8.56365C1.11925 9.6131 1.91274 10.4692 2.93943 11.0806C4.26476 11.8684 5.95412 12.1073 7.4387 11.7148C7.59228 11.675 7.73733 11.6409 7.76577 11.6381C7.79705 11.6381 9.44375 13.262 12.248 16.0634C14.6853 18.5007 16.6932 20.4944 16.7074 20.4944C16.7416 20.4944 18.5361 18.6884 18.5361 18.6571C18.5361 18.6344 15.2854 15.3808 10.6781 10.7962C9.0598 9.1865 8.92045 9.04145 8.92898 8.96182C8.93467 8.89925 8.95458 8.87365 9.00292 8.86797C9.05412 8.85943 9.19632 8.98742 9.69403 9.47943C10.0382 9.82072 10.3993 10.1819 10.496 10.2815C10.5927 10.381 12.4783 12.2723 14.6825 14.4878L18.6954 18.5121L19.6027 17.5963C20.1032 17.0929 20.5156 16.6692 20.5213 16.6549C20.527 16.6407 18.5333 14.6357 16.0931 12.1983L11.6564 7.76448L11.7133 7.56824C12.5295 4.64173 11.0336 1.5787 8.22366 0.43255C7.52971 0.148146 6.86705 0.0173204 6.07925 0.00310112C5.78916 -0.0025885 5.5076 0.000257264 5.45356 0.00594498Z" fill="#038C4C"/>
<path d="M38.9563 2.56844C38.5411 2.68789 38.197 2.78743 38.1884 2.79596C38.1828 2.80165 38.4643 3.09459 38.8141 3.4444C39.1668 3.79706 39.4598 4.07292 39.4711 4.06155C39.4797 4.05017 39.5877 3.68045 39.71 3.23963C39.9461 2.37505 39.9489 2.34661 39.784 2.3523C39.7442 2.35514 39.3716 2.45184 38.9563 2.56844Z" fill="#038C4C"/>
<path d="M36.3029 3.31641L34.7159 3.76292L33.7944 4.68155C33.2882 5.18778 32.8758 5.60585 32.8786 5.6087C32.8815 5.61154 33.5697 5.43806 34.4059 5.21907L35.9275 4.82659L36.0042 4.90054C36.0469 4.94035 36.0754 4.98301 36.0697 4.99439C36.0526 5.02283 35.316 8.18823 35.3245 8.19392C35.3274 8.19677 36.027 8.00906 36.8802 7.77585C37.7334 7.54548 38.4615 7.35209 38.5013 7.3464C38.5667 7.33787 38.5867 7.27246 38.982 5.85044L39.3944 4.36586L38.6435 3.61788L37.8899 2.8699L36.3029 3.31641Z" fill="#038C4C"/>
<path d="M34.093 5.59446C33.382 5.77932 32.7364 5.93859 32.6568 5.94712L32.5146 5.96134L18.3655 20.1104L4.21637 34.2595L4.77949 34.8198L5.33977 35.3829L20.4075 20.3152C28.6922 12.0305 35.4525 5.25033 35.4297 5.25317C35.4069 5.25317 34.804 5.40675 34.093 5.59446Z" fill="#038C4C"/>
<path d="M20.5753 20.4887L5.51041 35.5535L6.09343 36.1366L6.67646 36.7196L20.8256 22.5705L34.9718 8.42141L35.3159 6.94252C35.5036 6.13197 35.6544 5.45508 35.6515 5.44371C35.6458 5.43233 28.8628 12.2012 20.5753 20.4887Z" fill="#038C4C"/>
<path d="M36.8034 8.0915L35.1766 8.53233L21.0047 22.7042L6.83289 36.876L7.43867 37.479L8.04161 38.0847L23.2487 22.8777C31.613 14.5134 38.4501 7.6649 38.4444 7.65921C38.4358 7.65352 37.6992 7.84976 36.8034 8.0915Z" fill="#038C4C"/>
<path d="M24.5939 22.5563L23.6696 23.4806L26.727 26.5323C28.4078 28.2074 30.3958 30.1897 31.1438 30.932C32.2757 32.0582 32.5004 32.2943 32.5004 32.3597C32.5004 32.4194 32.4833 32.4422 32.4264 32.4564C32.361 32.4735 32.2871 32.4109 31.6728 31.7966C31.2974 31.4212 30.7513 30.8751 30.4584 30.5765C28.823 28.9184 23.553 23.6513 23.5274 23.6513C23.5132 23.6513 23.0894 24.0608 22.5889 24.5614L21.6816 25.4686L21.7385 25.534C21.767 25.571 23.5872 27.394 25.7828 29.5896L29.773 33.577L29.6706 33.9837C29.0563 36.458 30.0346 38.9778 32.1591 40.4027C33.5811 41.3526 35.3444 41.6341 37.0594 41.1791L37.341 41.1051L35.2904 39.0546C33.5641 37.3254 33.2342 36.9813 33.183 36.8618C33.1289 36.7367 33.1232 36.6713 33.1261 36.2219C33.1318 35.4512 33.1574 35.1696 33.2398 35.053C33.3394 34.9108 35.0031 33.2698 35.1027 33.2158C35.2022 33.1617 35.6601 33.1248 36.3541 33.1162C36.8347 33.1077 36.8376 33.1077 36.9513 33.1845C37.0139 33.2243 37.9723 34.1685 39.0844 35.2805C40.1935 36.3926 41.1122 37.3027 41.1207 37.3027C41.1491 37.3027 41.2828 36.7708 41.3454 36.4068C41.5501 35.2151 41.3596 33.9211 40.8192 32.8233C39.7783 30.7045 37.577 29.3934 35.2307 29.4901C34.8012 29.5071 34.2836 29.5839 33.9281 29.6806C33.8143 29.7119 33.7034 29.7375 33.6807 29.7375C33.6579 29.7375 31.815 27.9145 29.5852 25.6848C27.3555 23.455 25.5268 21.632 25.5239 21.632C25.5211 21.632 25.103 22.0472 24.5939 22.5563Z" fill="#038C4C"/>
<path d="M3.88933 34.5867L3.73575 34.7431L4.24484 35.2692C5.01842 36.0684 5.63842 36.6855 6.64521 37.6696L7.56384 38.5626L7.72311 38.4033L7.88238 38.2412L5.97971 36.3357C4.93025 35.2891 4.06851 34.4302 4.05998 34.4302C4.05144 34.4302 3.97465 34.5013 3.88933 34.5867Z" fill="#038C4C"/>
<path d="M2.5896 35.8863C1.69941 36.7793 1.6084 36.8789 1.52308 37.0609C1.43776 37.2401 1.42923 37.2856 1.42923 37.5159C1.42923 37.7463 1.43776 37.7918 1.52308 37.971C1.61125 38.1558 1.70226 38.2554 2.874 39.4271C4.04574 40.5989 4.14529 40.6899 4.33015 40.778C4.50932 40.8634 4.55483 40.8719 4.78519 40.8719C5.01556 40.8719 5.06107 40.8634 5.24024 40.778C5.42226 40.6927 5.5218 40.6017 6.42052 39.7058L7.40171 38.7246L5.4962 36.8191C4.4496 35.7725 3.58501 34.9136 3.57648 34.9136C3.56795 34.9136 3.12428 35.3516 2.5896 35.8863Z" fill="#038C4C"/>
</g>
<defs>
<clipPath id="clip0">
<rect width="42" height="42" fill="white"/>
</clipPath>
</defs>
</svg>
